<?xml version="1.0" standalone="no"?>
<!DOCTYPE svg PUBLIC "-//W3C//DTD SVG 20010904//EN"
 "http://www.w3.org/TR/2001/REC-SVG-20010904/DTD/svg10.dtd">
<svg version="1.0" xmlns="http://www.w3.org/2000/svg"
 width="800.000000pt" height="800.000000pt" viewBox="0 0 800.000000 800.000000"
 preserveAspectRatio="xMidYMid meet">

<g transform="translate(0.000000,800.000000) scale(0.100000,-0.100000)"
fill="#08519B" stroke="none">
<path d="M2855 7893 c-495 -63 -912 -219 -1330 -496 -178 -117 -317 -234 -488
-407 -530 -539 -841 -1187 -937 -1957 -25 -201 -24 -419 4 -598 116 -744 218
-1201 371 -1660 257 -773 567 -1165 920 -1165 68 0 205 32 293 68 181 74 329
185 604 451 136 131 135 130 80 300 -80 246 -111 429 -119 696 -10 360 52 683
202 1050 36 89 139 292 174 343 10 15 43 65 73 112 176 271 457 553 733 736
377 251 744 375 1221 414 112 9 133 18 162 69 20 35 20 45 11 251 -6 118 -8
296 -4 395 10 285 25 563 35 650 5 44 16 143 25 220 8 77 21 176 28 220 l13
80 129 3 c70 1 132 -1 136 -5 4 -4 -1 -62 -11 -128 -59 -381 -84 -807 -78
-1318 6 -463 -4 -438 198 -477 479 -90 900 -298 1260 -622 107 -96 140 -112
194 -97 71 20 204 212 351 507 56 114 73 150 120 257 33 73 83 194 152 365 40
102 82 203 93 225 168 361 269 615 306 770 65 278 -61 571 -302 697 -145 76
48 70 -2324 72 l-2125 1 -170 -22z m-138 -629 c13 -8 33 -29 43 -47 55 -90
-20 -206 -125 -195 -60 7 -102 40 -116 91 -32 121 95 219 198 151z m-513 -118
c52 -22 76 -60 76 -121 0 -62 -22 -95 -83 -127 -180 -91 -418 -262 -572 -409
-55 -53 -110 -101 -122 -108 -57 -30 -149 2 -173 59 -15 36 -15 101 -1 128 6
11 61 67 122 126 155 147 321 272 504 378 164 95 185 101 249 74z"/>
<path d="M4525 5490 c-228 -31 -433 -89 -630 -178 -280 -127 -482 -267 -700
-486 -164 -165 -264 -296 -372 -488 -141 -248 -231 -511 -280 -813 -25 -156
-25 -487 1 -650 81 -528 308 -971 682 -1335 187 -182 354 -300 589 -415 666
-327 1439 -318 2094 26 l115 60 455 -455 c491 -489 496 -494 638 -530 115 -30
273 -12 379 42 204 104 323 342 284 568 -9 51 -28 107 -53 159 -38 76 -60 100
-485 527 l-445 447 26 43 c333 570 415 1221 232 1843 -167 567 -540 1041
-1060 1348 -423 249 -971 356 -1470 287z m565 -801 c261 -47 452 -130 665
-289 436 -327 666 -901 575 -1436 -22 -127 -74 -302 -116 -393 -180 -382 -508
-677 -897 -806 -95 -31 -138 -41 -277 -66 -30 -5 -122 -10 -205 -10 -577 0
-1092 319 -1353 837 -167 333 -202 730 -97 1094 108 372 348 680 685 881 172
103 347 162 590 202 81 13 323 6 430 -14z"/>
<path d="M5464 4010 c-102 -20 -134 -47 -516 -428 l-367 -366 -115 112 c-151
148 -190 167 -336 167 -99 0 -110 -2 -172 -33 -78 -38 -138 -100 -177 -182
-23 -48 -26 -68 -26 -155 1 -156 10 -170 329 -489 150 -150 282 -273 308 -288
115 -64 261 -64 376 0 43 24 995 966 1074 1062 55 68 79 138 79 234 0 110 -28
181 -101 256 -99 100 -219 137 -356 110z"/>
</g>
</svg>
